<svg xmlns="http://www.w3.org/2000/svg" xmlns:xlink="http://www.w3.org/1999/xlink" width="500" zoomAndPan="magnify" viewBox="0 0 375 374.999991" height="500" preserveAspectRatio="xMidYMid meet" version="1.0"><defs><g/><clipPath id="062bc56664"><path d="M 181.835938 217.535156 L 212.585938 217.535156 L 212.585938 278.285156 L 181.835938 278.285156 Z M 181.835938 217.535156 " clip-rule="nonzero"/></clipPath></defs><g fill="#ff6f61" fill-opacity="1"><g transform="translate(90.721052, 228.046831)"><g><path d="M 77.265625 0 C 68.085938 0 59.429688 -1.660156 51.296875 -4.984375 C 43.171875 -8.304688 35.941406 -12.976562 29.609375 -19 C 23.273438 -25.019531 18.207031 -31.988281 14.40625 -39.90625 C 10.601562 -47.820312 8.441406 -56.367188 7.921875 -65.546875 L 7.921875 -73.46875 C 8.441406 -82.125 10.46875 -90.25 14 -97.84375 C 17.539062 -105.445312 22.164062 -112.15625 27.875 -117.96875 L 28.34375 -118.4375 C 34.882812 -124.988281 42.351562 -130.003906 50.75 -133.484375 C 59.144531 -136.960938 67.984375 -138.703125 77.265625 -138.703125 C 85.398438 -138.703125 93.160156 -137.332031 100.546875 -134.59375 C 108.046875 -132.375 113.507812 -131.523438 116.9375 -132.046875 C 120.363281 -132.578125 122.238281 -134.320312 122.5625 -137.28125 L 123.984375 -137.28125 L 123.984375 -99.921875 L 122.5625 -99.921875 C 122.34375 -105.722656 120.941406 -110.921875 118.359375 -115.515625 C 115.773438 -120.109375 112.34375 -124.039062 108.0625 -127.3125 C 103.789062 -130.582031 99.015625 -133.0625 93.734375 -134.75 C 88.460938 -136.4375 82.972656 -137.28125 77.265625 -137.28125 C 75.265625 -137.28125 72.734375 -136.859375 69.671875 -136.015625 C 66.609375 -135.171875 63.382812 -133.484375 60 -130.953125 C 56.625 -128.421875 53.429688 -124.644531 50.421875 -119.625 C 47.421875 -114.613281 44.96875 -108.039062 43.0625 -99.90625 C 41.164062 -91.78125 40.21875 -81.597656 40.21875 -69.359375 C 40.21875 -57.210938 41.164062 -47.050781 43.0625 -38.875 C 44.96875 -30.695312 47.421875 -24.097656 50.421875 -19.078125 C 53.429688 -14.066406 56.625 -10.289062 60 -7.75 C 63.382812 -5.21875 66.609375 -3.53125 69.671875 -2.6875 C 72.734375 -1.84375 75.265625 -1.421875 77.265625 -1.421875 C 86.140625 -1.421875 93.953125 -3.238281 100.703125 -6.875 C 107.460938 -10.519531 112.769531 -15.691406 116.625 -22.390625 C 120.476562 -29.097656 122.457031 -36.992188 122.5625 -46.078125 L 122.5625 -48.296875 L 123.984375 -48.296875 L 123.984375 -1.421875 L 122.5625 -1.421875 C 122.238281 -4.585938 120.28125 -6.351562 116.6875 -6.71875 C 113.101562 -7.09375 107.722656 -6.222656 100.546875 -4.109375 C 93.160156 -1.367188 85.398438 0 77.265625 0 Z M 77.265625 0 "/></g></g></g><g fill="#ff6f61" fill-opacity="1"><g transform="translate(222.627293, 228.046831)"><g/></g></g><g fill="#3e3e3e" fill-opacity="1"><g transform="translate(73.935028, 217.557756)"><g><path d="M 77.273438 2.621094 C 67.746094 2.621094 58.757812 0.894531 50.3125 -2.558594 C 41.878906 -6.011719 34.375 -10.855469 27.804688 -17.101562 C 21.238281 -23.339844 15.984375 -30.5625 12.046875 -38.769531 C 8.09375 -46.996094 5.847656 -55.875 5.300781 -65.40625 L 5.292969 -65.480469 L 5.292969 -73.554688 L 5.300781 -73.632812 C 5.847656 -82.621094 7.960938 -91.0625 11.636719 -98.964844 C 15.300781 -106.839844 20.085938 -113.785156 25.996094 -119.804688 L 26.488281 -120.296875 C 33.28125 -127.089844 41.03125 -132.292969 49.746094 -135.910156 C 58.460938 -139.527344 67.636719 -141.335938 77.273438 -141.335938 C 85.714844 -141.335938 93.78125 -139.90625 101.464844 -137.054688 L 100.550781 -134.59375 L 101.292969 -137.109375 C 108.414062 -135.003906 113.496094 -134.1875 116.539062 -134.652344 C 117.726562 -134.835938 118.589844 -135.179688 119.132812 -135.683594 C 119.589844 -136.109375 119.863281 -136.738281 119.953125 -137.566406 L 120.203125 -139.910156 L 126.609375 -139.910156 L 126.609375 -97.292969 L 120.03125 -97.292969 L 119.941406 -99.820312 C 119.746094 -105.203125 118.457031 -110.003906 116.078125 -114.226562 C 113.667969 -118.507812 110.46875 -122.175781 106.476562 -125.230469 C 102.445312 -128.316406 97.933594 -130.660156 92.941406 -132.253906 C 87.925781 -133.863281 82.699219 -134.664062 77.273438 -134.664062 C 75.503906 -134.664062 73.203125 -134.273438 70.371094 -133.492188 C 67.628906 -132.734375 64.699219 -131.191406 61.585938 -128.855469 C 58.484375 -126.527344 55.515625 -123.003906 52.683594 -118.28125 C 49.816406 -113.503906 47.460938 -107.183594 45.625 -99.320312 C 43.769531 -91.386719 42.84375 -81.398438 42.84375 -69.355469 C 42.84375 -57.417969 43.769531 -47.453125 45.625 -39.46875 C 47.464844 -31.554688 49.816406 -25.207031 52.683594 -20.429688 C 55.515625 -15.710938 58.484375 -12.183594 61.585938 -9.855469 C 64.699219 -7.523438 67.628906 -5.976562 70.371094 -5.21875 C 73.203125 -4.4375 75.503906 -4.046875 77.273438 -4.046875 C 85.699219 -4.046875 93.097656 -5.765625 99.464844 -9.195312 C 105.78125 -12.601562 110.742188 -17.441406 114.347656 -23.714844 C 117.976562 -30.019531 119.839844 -37.488281 119.9375 -46.109375 L 119.9375 -50.917969 L 126.609375 -50.917969 L 126.609375 1.199219 L 120.1875 1.199219 L 119.953125 -1.164062 C 119.859375 -2.078125 119.574219 -2.75 119.097656 -3.183594 C 118.546875 -3.683594 117.660156 -3.996094 116.433594 -4.121094 C 113.1875 -4.457031 108.140625 -3.613281 101.289062 -1.601562 L 100.550781 -4.117188 L 101.464844 -1.660156 C 93.78125 1.195312 85.714844 2.621094 77.273438 2.621094 Z M 77.273438 -2.621094 C 85.085938 -2.621094 92.542969 -3.941406 99.636719 -6.574219 L 99.722656 -6.605469 L 99.8125 -6.632812 C 107.320312 -8.839844 113.039062 -9.742188 116.96875 -9.339844 C 119.335938 -9.09375 121.21875 -8.339844 122.617188 -7.070312 C 124.09375 -5.734375 124.945312 -3.941406 125.171875 -1.6875 L 122.5625 -1.425781 L 122.5625 -4.046875 L 123.984375 -4.046875 L 123.984375 -1.425781 L 121.363281 -1.425781 L 121.363281 -48.296875 L 123.984375 -48.296875 L 123.984375 -45.671875 L 122.5625 -45.671875 L 122.5625 -48.296875 L 125.183594 -48.296875 L 125.183594 -46.046875 C 125.074219 -36.515625 122.976562 -28.199219 118.898438 -21.097656 C 114.796875 -13.964844 109.148438 -8.457031 101.953125 -4.578125 C 94.808594 -0.726562 86.582031 1.199219 77.273438 1.199219 C 75.03125 1.199219 72.265625 0.742188 68.976562 -0.164062 C 65.59375 -1.097656 62.082031 -2.929688 58.441406 -5.660156 C 54.789062 -8.398438 51.371094 -12.421875 48.183594 -17.730469 C 45.035156 -22.980469 42.476562 -29.832031 40.515625 -38.28125 C 38.570312 -46.65625 37.597656 -57.015625 37.597656 -69.355469 C 37.597656 -81.804688 38.570312 -92.1875 40.515625 -100.515625 C 42.480469 -108.910156 45.035156 -115.730469 48.183594 -120.980469 C 51.371094 -126.289062 54.789062 -130.3125 58.441406 -133.050781 C 62.082031 -135.785156 65.59375 -137.617188 68.976562 -138.546875 C 72.265625 -139.457031 75.03125 -139.910156 77.273438 -139.910156 C 83.246094 -139.910156 89.003906 -139.023438 94.542969 -137.25 C 100.109375 -135.46875 105.148438 -132.851562 109.667969 -129.394531 C 114.226562 -125.902344 117.886719 -121.707031 120.648438 -116.800781 C 123.445312 -111.839844 124.957031 -106.242188 125.183594 -100.011719 L 122.5625 -99.917969 L 122.5625 -102.539062 L 123.984375 -102.539062 L 123.984375 -99.917969 L 121.363281 -99.917969 L 121.363281 -137.289062 L 123.984375 -137.289062 L 123.984375 -134.664062 L 122.5625 -134.664062 L 122.5625 -137.289062 L 125.167969 -137.007812 C 124.941406 -134.878906 124.117188 -133.160156 122.703125 -131.84375 C 121.375 -130.605469 119.585938 -129.816406 117.339844 -129.46875 C 113.519531 -128.882812 107.675781 -129.753906 99.808594 -132.082031 L 99.722656 -132.105469 L 99.636719 -132.136719 C 92.542969 -134.773438 85.085938 -136.089844 77.273438 -136.089844 C 68.332031 -136.089844 59.828125 -134.414062 51.753906 -131.066406 C 43.683594 -127.714844 36.5 -122.890625 30.199219 -116.589844 L 29.742188 -116.132812 C 24.25 -110.539062 19.800781 -104.082031 16.390625 -96.753906 C 12.996094 -89.453125 11.042969 -81.640625 10.535156 -73.3125 L 7.917969 -73.472656 L 10.539062 -73.472656 L 10.539062 -65.554688 L 7.917969 -65.554688 L 10.535156 -65.707031 C 11.042969 -56.867188 13.125 -48.644531 16.773438 -41.039062 C 20.433594 -33.410156 25.316406 -26.699219 31.417969 -20.902344 C 37.511719 -15.113281 44.472656 -10.617188 52.296875 -7.414062 C 60.109375 -4.21875 68.433594 -2.621094 77.273438 -2.621094 Z M 77.273438 -2.621094 "/></g></g></g><g fill="#3e3e3e" fill-opacity="1"><g transform="translate(205.84127, 217.557756)"><g/></g></g><g clip-path="url(#062bc56664)"><path fill="#ff6f61" d="M 181.921875 263.246094 C 181.941406 262.898438 181.839844 262.488281 181.839844 262.074219 C 181.84375 260.835938 181.945312 259.609375 182.113281 258.386719 C 182.253906 257.347656 182.457031 256.324219 182.738281 255.320312 C 183.167969 253.789062 183.78125 252.328125 184.476562 250.902344 C 184.65625 250.527344 184.851562 250.160156 185.046875 249.792969 C 185.484375 248.96875 185.78125 248.082031 186.210938 247.257812 C 186.546875 246.617188 186.753906 245.9375 187.003906 245.269531 C 187.351562 244.351562 187.753906 243.453125 188.152344 242.554688 C 188.515625 241.738281 188.785156 240.882812 189.15625 240.070312 C 189.386719 239.566406 189.59375 239.054688 189.796875 238.539062 C 190.527344 236.6875 191.394531 234.898438 192.238281 233.097656 C 192.660156 232.191406 192.914062 231.230469 193.238281 230.289062 C 193.5 229.527344 193.695312 228.742188 194.003906 228 C 194.328125 227.230469 194.496094 226.417969 194.753906 225.628906 C 194.984375 224.925781 195.292969 224.238281 195.488281 223.527344 C 195.785156 222.441406 196.179688 221.371094 196.363281 220.257812 C 196.476562 219.5625 196.519531 218.855469 196.589844 218.15625 C 196.601562 218.011719 196.5625 217.84375 196.8125 217.863281 C 196.855469 217.867188 196.921875 217.769531 196.960938 217.703125 C 197.058594 217.535156 197.191406 217.558594 197.328125 217.628906 C 197.980469 217.984375 197.949219 217.84375 197.855469 218.664062 C 197.808594 219.058594 197.863281 219.417969 198.027344 219.753906 C 198.203125 220.109375 198.242188 220.480469 198.273438 220.851562 C 198.320312 221.480469 198.390625 222.105469 198.570312 222.710938 C 198.707031 223.179688 198.914062 223.625 199.039062 224.101562 C 199.359375 225.34375 199.832031 226.542969 200.085938 227.804688 C 200.1875 228.296875 200.347656 228.773438 200.492188 229.257812 C 200.621094 229.679688 200.734375 230.101562 200.828125 230.535156 C 200.945312 231.105469 201.253906 231.605469 201.4375 232.152344 C 201.652344 232.789062 201.992188 233.378906 202.132812 234.039062 C 202.210938 234.417969 202.398438 234.746094 202.570312 235.078125 C 202.660156 235.246094 202.742188 235.410156 202.789062 235.597656 C 202.863281 235.863281 202.953125 236.121094 203.125 236.351562 C 203.25 236.523438 203.324219 236.730469 203.367188 236.941406 C 203.558594 237.886719 204.035156 238.722656 204.351562 239.621094 C 204.460938 239.929688 204.671875 240.191406 204.839844 240.46875 C 205.203125 241.066406 205.433594 241.71875 205.71875 242.347656 C 205.738281 242.390625 205.730469 242.457031 205.761719 242.488281 C 206.0625 242.808594 206.152344 243.230469 206.335938 243.609375 C 206.539062 244.023438 206.722656 244.449219 206.96875 244.847656 C 207.402344 245.550781 207.722656 246.320312 208.105469 247.054688 C 208.214844 247.265625 208.308594 247.484375 208.359375 247.722656 C 208.382812 247.832031 208.394531 247.953125 208.480469 248.035156 C 208.785156 248.339844 208.902344 248.746094 209.058594 249.128906 C 209.421875 250 209.789062 250.867188 210.136719 251.746094 C 210.359375 252.304688 210.554688 252.875 210.695312 253.464844 C 210.804688 253.941406 210.976562 254.40625 211.15625 254.859375 C 211.449219 255.59375 211.5625 256.363281 211.75 257.121094 C 211.992188 258.097656 212.214844 259.082031 212.324219 260.082031 C 212.445312 261.179688 212.628906 262.28125 212.460938 263.394531 C 212.4375 263.550781 212.476562 263.71875 212.492188 263.878906 C 212.539062 264.3125 212.398438 264.726562 212.386719 265.15625 C 212.367188 266.066406 212.195312 266.953125 212.027344 267.84375 C 211.953125 268.238281 211.796875 268.617188 211.710938 269.007812 C 211.46875 270.125 210.808594 271.019531 210.167969 271.917969 C 209.726562 272.535156 209.1875 273.054688 208.652344 273.59375 C 208.109375 274.140625 207.425781 274.507812 206.925781 275.097656 C 206.679688 275.382812 206.300781 275.46875 206.023438 275.707031 C 205.894531 275.820312 205.726562 275.882812 205.644531 276.058594 C 205.609375 276.128906 205.519531 276.179688 205.445312 276.222656 C 204.429688 276.847656 203.382812 277.386719 202.195312 277.601562 C 201.886719 277.660156 201.597656 277.792969 201.285156 277.839844 C 199.679688 278.078125 198.066406 278.234375 196.441406 278.214844 C 196.0625 278.210938 195.6875 278.140625 195.3125 278.125 C 193.828125 278.058594 192.410156 277.710938 191.015625 277.226562 C 189.78125 276.792969 188.726562 276.074219 187.726562 275.265625 C 187.257812 274.886719 186.8125 274.484375 186.34375 274.105469 C 185.976562 273.804688 185.785156 273.371094 185.472656 273.03125 C 185.40625 272.957031 185.351562 272.878906 185.257812 272.828125 C 184.972656 272.660156 184.800781 272.402344 184.710938 272.089844 C 184.679688 271.976562 184.625 271.882812 184.558594 271.792969 C 183.832031 270.828125 183.269531 269.773438 182.847656 268.648438 C 182.597656 267.980469 182.40625 267.289062 182.3125 266.574219 C 182.199219 265.738281 182.011719 264.914062 181.953125 264.070312 C 181.933594 263.820312 181.917969 263.570312 181.921875 263.246094 Z M 197.359375 222.402344 C 197.25 222.476562 197.21875 222.535156 197.222656 222.597656 C 197.25 222.847656 197.152344 223.066406 197.054688 223.285156 C 197 223.414062 196.953125 223.542969 196.917969 223.675781 C 196.726562 224.394531 196.542969 225.113281 196.359375 225.828125 C 196.316406 225.988281 196.238281 226.152344 196.253906 226.304688 C 196.289062 226.746094 196.167969 227.15625 196.046875 227.566406 C 195.777344 228.472656 195.554688 229.386719 195.332031 230.304688 C 195.085938 231.324219 194.632812 232.269531 194.261719 233.246094 C 194 233.9375 193.710938 234.621094 193.410156 235.300781 C 193.082031 236.046875 192.769531 236.804688 192.421875 237.546875 C 192.214844 237.988281 191.980469 238.414062 191.8125 238.878906 C 191.433594 239.933594 190.992188 240.960938 190.542969 241.988281 C 190 243.234375 189.433594 244.46875 188.835938 245.691406 C 188.636719 246.097656 188.527344 246.542969 188.28125 246.925781 C 188.183594 247.074219 188.074219 247.214844 188.011719 247.378906 C 187.785156 247.9375 187.566406 248.5 187.371094 249.074219 C 186.941406 250.332031 186.535156 251.605469 186.097656 252.863281 C 185.769531 253.804688 185.53125 254.769531 185.359375 255.75 C 185.214844 256.566406 185.105469 257.390625 184.96875 258.210938 C 184.808594 259.210938 184.464844 260.1875 184.507812 261.222656 C 184.507812 261.246094 184.503906 261.269531 184.496094 261.296875 C 184.417969 261.640625 184.359375 261.984375 184.335938 262.335938 C 184.285156 263.089844 184.226562 263.84375 184.222656 264.597656 C 184.21875 264.9375 184.335938 265.273438 184.261719 265.613281 C 184.226562 265.78125 184.242188 265.9375 184.292969 266.097656 C 184.335938 266.242188 184.363281 266.386719 184.367188 266.542969 C 184.367188 266.703125 184.410156 266.867188 184.496094 267.007812 C 184.707031 267.363281 184.824219 267.746094 184.886719 268.144531 C 185.003906 268.867188 185.304688 269.53125 185.695312 270.121094 C 186.195312 270.882812 186.714844 271.644531 187.289062 272.363281 C 187.890625 273.121094 188.53125 273.804688 189.316406 274.375 C 190.195312 275.015625 191.183594 275.410156 192.195312 275.757812 C 193.054688 276.050781 193.945312 276.222656 194.84375 276.347656 C 195.367188 276.417969 195.886719 276.5 196.421875 276.445312 C 197.046875 276.382812 197.675781 276.351562 198.300781 276.289062 C 198.839844 276.238281 199.375 276.1875 199.910156 276.097656 C 201.179688 275.886719 202.390625 275.460938 203.578125 274.972656 C 203.738281 274.90625 203.902344 274.832031 204.074219 274.792969 C 204.746094 274.625 205.304688 274.214844 205.878906 273.867188 C 206.375 273.566406 206.789062 273.125 207.230469 272.730469 C 207.640625 272.367188 208.066406 272.019531 208.4375 271.609375 C 208.679688 271.339844 208.996094 271.117188 209.179688 270.8125 C 209.460938 270.339844 209.667969 269.824219 209.878906 269.3125 C 210.253906 268.398438 210.386719 267.417969 210.65625 266.472656 C 210.84375 265.820312 210.847656 265.132812 210.898438 264.457031 C 211 263.183594 210.945312 261.917969 210.878906 260.648438 C 210.871094 260.511719 210.839844 260.371094 210.789062 260.246094 C 210.566406 259.679688 210.488281 259.078125 210.34375 258.492188 C 210.195312 257.878906 210.257812 257.210938 209.871094 256.65625 C 209.855469 256.636719 209.847656 256.609375 209.84375 256.585938 C 209.800781 256.066406 209.570312 255.59375 209.449219 255.09375 C 209.269531 254.347656 209.046875 253.613281 208.789062 252.890625 C 208.628906 252.441406 208.457031 251.996094 208.300781 251.542969 C 208.128906 251.027344 207.882812 250.542969 207.617188 250.082031 C 207.273438 249.480469 206.960938 248.867188 206.65625 248.246094 C 206.207031 247.332031 205.777344 246.40625 205.328125 245.492188 C 204.925781 244.671875 204.539062 243.839844 204.078125 243.050781 C 204.027344 242.964844 203.992188 242.867188 203.949219 242.777344 C 203.757812 242.339844 203.570312 241.898438 203.378906 241.460938 C 202.816406 240.171875 202.324219 238.851562 201.796875 237.546875 C 201.722656 237.359375 201.617188 237.175781 201.601562 236.976562 C 201.578125 236.691406 201.445312 236.449219 201.335938 236.195312 C 201.097656 235.644531 200.792969 235.117188 200.8125 234.484375 C 200.816406 234.402344 200.765625 234.316406 200.730469 234.234375 C 200.570312 233.878906 200.386719 233.535156 200.246094 233.171875 C 199.699219 231.761719 199.375 230.285156 198.941406 228.839844 C 198.746094 228.191406 198.65625 227.511719 198.464844 226.859375 C 198.171875 225.871094 197.910156 224.871094 197.644531 223.875 C 197.519531 223.402344 197.433594 222.921875 197.359375 222.402344 Z M 190.101562 272.183594 C 189.980469 272.320312 190.007812 272.464844 190.070312 272.632812 C 190.265625 273.160156 190.570312 273.585938 191.09375 273.824219 C 191.148438 273.851562 191.199219 273.890625 191.25 273.925781 C 191.816406 274.328125 192.410156 274.664062 193.074219 274.886719 C 193.363281 274.984375 193.664062 274.988281 193.941406 275.109375 C 194.507812 275.363281 195.074219 275.28125 195.625 275.066406 C 195.828125 274.988281 196.027344 274.917969 196.238281 274.902344 C 196.515625 274.882812 196.738281 274.742188 196.964844 274.613281 C 197.15625 274.503906 197.160156 274.222656 196.980469 274.089844 C 196.910156 274.039062 196.832031 273.992188 196.75 273.964844 C 196.351562 273.847656 195.953125 273.746094 195.535156 273.714844 C 195.109375 273.683594 194.683594 273.648438 194.269531 273.519531 C 193.742188 273.355469 193.21875 273.164062 192.675781 273.066406 C 192.105469 272.964844 191.652344 272.683594 191.242188 272.308594 C 190.925781 272.015625 190.574219 271.851562 190.136719 271.855469 C 190.140625 271.980469 190.191406 272.085938 190.101562 272.183594 Z M 187.609375 269.695312 C 187.539062 269.984375 187.652344 270.210938 187.8125 270.429688 C 187.949219 270.609375 188.105469 270.777344 188.21875 270.96875 C 188.34375 271.1875 188.484375 271.066406 188.632812 271.035156 C 188.804688 270.996094 188.902344 270.917969 188.886719 270.730469 C 188.859375 270.457031 188.765625 270.222656 188.59375 270.003906 C 188.347656 269.691406 188.039062 269.480469 187.613281 269.332031 C 187.613281 269.472656 187.632812 269.589844 187.609375 269.695312 Z M 187.609375 269.695312 " fill-opacity="1" fill-rule="nonzero"/><path fill="#ff6f61" d="M 181.921875 263.246094 C 181.941406 262.898438 181.839844 262.488281 181.839844 262.074219 C 181.84375 260.835938 181.945312 259.609375 182.113281 258.386719 C 182.253906 257.347656 182.457031 256.324219 182.738281 255.320312 C 183.167969 253.789062 183.78125 252.328125 184.476562 250.902344 C 184.65625 250.527344 184.851562 250.160156 185.046875 249.792969 C 185.484375 248.96875 185.78125 248.082031 186.210938 247.257812 C 186.546875 246.617188 186.753906 245.9375 187.003906 245.269531 C 187.351562 244.351562 187.753906 243.453125 188.152344 242.554688 C 188.515625 241.738281 188.785156 240.882812 189.15625 240.070312 C 189.386719 239.566406 189.59375 239.054688 189.796875 238.539062 C 190.527344 236.6875 191.394531 234.898438 192.238281 233.097656 C 192.660156 232.191406 192.914062 231.230469 193.238281 230.289062 C 193.5 229.527344 193.695312 228.742188 194.003906 228 C 194.328125 227.230469 194.496094 226.417969 194.753906 225.628906 C 194.984375 224.925781 195.292969 224.238281 195.488281 223.527344 C 195.785156 222.441406 196.179688 221.371094 196.363281 220.257812 C 196.476562 219.5625 196.519531 218.855469 196.589844 218.15625 C 196.601562 218.011719 196.5625 217.84375 196.8125 217.863281 C 196.855469 217.867188 196.921875 217.769531 196.960938 217.703125 C 197.058594 217.535156 197.191406 217.558594 197.328125 217.628906 C 197.980469 217.984375 197.949219 217.84375 197.855469 218.664062 C 197.808594 219.058594 197.863281 219.417969 198.027344 219.753906 C 198.203125 220.109375 198.242188 220.480469 198.273438 220.851562 C 198.320312 221.480469 198.390625 222.105469 198.570312 222.710938 C 198.707031 223.179688 198.914062 223.625 199.039062 224.101562 C 199.359375 225.34375 199.832031 226.542969 200.085938 227.804688 C 200.1875 228.296875 200.347656 228.773438 200.492188 229.257812 C 200.621094 229.679688 200.734375 230.101562 200.828125 230.535156 C 200.945312 231.105469 201.253906 231.605469 201.4375 232.152344 C 201.652344 232.789062 201.992188 233.378906 202.132812 234.039062 C 202.210938 234.417969 202.398438 234.746094 202.570312 235.078125 C 202.660156 235.246094 202.742188 235.410156 202.789062 235.597656 C 202.863281 235.863281 202.953125 236.121094 203.125 236.351562 C 203.25 236.523438 203.324219 236.730469 203.367188 236.941406 C 203.558594 237.886719 204.035156 238.722656 204.351562 239.621094 C 204.460938 239.929688 204.671875 240.191406 204.839844 240.46875 C 205.203125 241.066406 205.433594 241.71875 205.71875 242.347656 C 205.738281 242.390625 205.730469 242.457031 205.761719 242.488281 C 206.0625 242.808594 206.152344 243.230469 206.335938 243.609375 C 206.539062 244.023438 206.722656 244.449219 206.96875 244.847656 C 207.402344 245.550781 207.722656 246.320312 208.105469 247.054688 C 208.214844 247.265625 208.308594 247.484375 208.359375 247.722656 C 208.382812 247.832031 208.394531 247.953125 208.480469 248.035156 C 208.785156 248.339844 208.902344 248.746094 209.058594 249.128906 C 209.421875 250 209.789062 250.867188 210.136719 251.746094 C 210.359375 252.304688 210.554688 252.875 210.695312 253.464844 C 210.804688 253.941406 210.976562 254.40625 211.15625 254.859375 C 211.449219 255.59375 211.5625 256.363281 211.75 257.121094 C 211.992188 258.097656 212.214844 259.082031 212.324219 260.082031 C 212.445312 261.179688 212.628906 262.28125 212.460938 263.394531 C 212.4375 263.550781 212.476562 263.71875 212.492188 263.878906 C 212.539062 264.3125 212.398438 264.726562 212.386719 265.15625 C 212.367188 266.066406 212.195312 266.953125 212.027344 267.84375 C 211.953125 268.238281 211.796875 268.617188 211.710938 269.007812 C 211.46875 270.125 210.808594 271.019531 210.167969 271.917969 C 209.726562 272.535156 209.1875 273.054688 208.652344 273.59375 C 208.109375 274.140625 207.425781 274.507812 206.925781 275.097656 C 206.679688 275.382812 206.300781 275.46875 206.023438 275.707031 C 205.894531 275.820312 205.726562 275.882812 205.644531 276.058594 C 205.609375 276.128906 205.519531 276.179688 205.445312 276.222656 C 204.429688 276.847656 203.382812 277.386719 202.195312 277.601562 C 201.886719 277.660156 201.597656 277.792969 201.285156 277.839844 C 199.679688 278.078125 198.066406 278.234375 196.441406 278.214844 C 196.0625 278.210938 195.6875 278.140625 195.3125 278.125 C 193.828125 278.058594 192.410156 277.710938 191.015625 277.226562 C 189.78125 276.792969 188.726562 276.074219 187.726562 275.265625 C 187.257812 274.886719 186.8125 274.484375 186.34375 274.105469 C 185.976562 273.804688 185.785156 273.371094 185.472656 273.03125 C 185.40625 272.957031 185.351562 272.878906 185.257812 272.828125 C 184.972656 272.660156 184.800781 272.402344 184.710938 272.089844 C 184.679688 271.976562 184.625 271.882812 184.558594 271.792969 C 183.832031 270.828125 183.269531 269.773438 182.847656 268.648438 C 182.597656 267.980469 182.40625 267.289062 182.3125 266.574219 C 182.199219 265.738281 182.011719 264.914062 181.953125 264.070312 C 181.933594 263.820312 181.917969 263.570312 181.921875 263.246094 Z M 197.359375 222.402344 C 197.25 222.476562 197.21875 222.535156 197.222656 222.597656 C 197.25 222.847656 197.152344 223.066406 197.054688 223.285156 C 197 223.414062 196.953125 223.542969 196.917969 223.675781 C 196.726562 224.394531 196.542969 225.113281 196.359375 225.828125 C 196.316406 225.988281 196.238281 226.152344 196.253906 226.304688 C 196.289062 226.746094 196.167969 227.15625 196.046875 227.566406 C 195.777344 228.472656 195.554688 229.386719 195.332031 230.304688 C 195.085938 231.324219 194.632812 232.269531 194.261719 233.246094 C 194 233.9375 193.710938 234.621094 193.410156 235.300781 C 193.082031 236.046875 192.769531 236.804688 192.421875 237.546875 C 192.214844 237.988281 191.980469 238.414062 191.8125 238.878906 C 191.433594 239.933594 190.992188 240.960938 190.542969 241.988281 C 190 243.234375 189.433594 244.46875 188.835938 245.691406 C 188.636719 246.097656 188.527344 246.542969 188.28125 246.925781 C 188.183594 247.074219 188.074219 247.214844 188.011719 247.378906 C 187.785156 247.9375 187.566406 248.5 187.371094 249.074219 C 186.941406 250.332031 186.535156 251.605469 186.097656 252.863281 C 185.769531 253.804688 185.53125 254.769531 185.359375 255.75 C 185.214844 256.566406 185.105469 257.390625 184.96875 258.210938 C 184.808594 259.210938 184.464844 260.1875 184.507812 261.222656 C 184.507812 261.246094 184.503906 261.269531 184.496094 261.296875 C 184.417969 261.640625 184.359375 261.984375 184.335938 262.335938 C 184.285156 263.089844 184.226562 263.84375 184.222656 264.597656 C 184.21875 264.9375 184.335938 265.273438 184.261719 265.613281 C 184.226562 265.78125 184.242188 265.9375 184.292969 266.097656 C 184.335938 266.242188 184.363281 266.386719 184.367188 266.542969 C 184.367188 266.703125 184.410156 266.867188 184.496094 267.007812 C 184.707031 267.363281 184.824219 267.746094 184.886719 268.144531 C 185.003906 268.867188 185.304688 269.53125 185.695312 270.121094 C 186.195312 270.882812 186.714844 271.644531 187.289062 272.363281 C 187.890625 273.121094 188.53125 273.804688 189.316406 274.375 C 190.195312 275.015625 191.183594 275.410156 192.195312 275.757812 C 193.054688 276.050781 193.945312 276.222656 194.84375 276.347656 C 195.367188 276.417969 195.886719 276.5 196.421875 276.445312 C 197.046875 276.382812 197.675781 276.351562 198.300781 276.289062 C 198.839844 276.238281 199.375 276.1875 199.910156 276.097656 C 201.179688 275.886719 202.390625 275.460938 203.578125 274.972656 C 203.738281 274.90625 203.902344 274.832031 204.074219 274.792969 C 204.746094 274.625 205.304688 274.214844 205.878906 273.867188 C 206.375 273.566406 206.789062 273.125 207.230469 272.730469 C 207.640625 272.367188 208.066406 272.019531 208.4375 271.609375 C 208.679688 271.339844 208.996094 271.117188 209.179688 270.8125 C 209.460938 270.339844 209.667969 269.824219 209.878906 269.3125 C 210.253906 268.398438 210.386719 267.417969 210.65625 266.472656 C 210.84375 265.820312 210.847656 265.132812 210.898438 264.457031 C 211 263.183594 210.945312 261.917969 210.878906 260.648438 C 210.871094 260.511719 210.839844 260.371094 210.789062 260.246094 C 210.566406 259.679688 210.488281 259.078125 210.34375 258.492188 C 210.195312 257.878906 210.257812 257.210938 209.871094 256.65625 C 209.855469 256.636719 209.847656 256.609375 209.84375 256.585938 C 209.800781 256.066406 209.570312 255.59375 209.449219 255.09375 C 209.269531 254.347656 209.046875 253.613281 208.789062 252.890625 C 208.628906 252.441406 208.457031 251.996094 208.300781 251.542969 C 208.128906 251.027344 207.882812 250.542969 207.617188 250.082031 C 207.273438 249.480469 206.960938 248.867188 206.65625 248.246094 C 206.207031 247.332031 205.777344 246.40625 205.328125 245.492188 C 204.925781 244.671875 204.539062 243.839844 204.078125 243.050781 C 204.027344 242.964844 203.992188 242.867188 203.949219 242.777344 C 203.757812 242.339844 203.570312 241.898438 203.378906 241.460938 C 202.816406 240.171875 202.324219 238.851562 201.796875 237.546875 C 201.722656 237.359375 201.617188 237.175781 201.601562 236.976562 C 201.578125 236.691406 201.445312 236.449219 201.335938 236.195312 C 201.097656 235.644531 200.792969 235.117188 200.8125 234.484375 C 200.816406 234.402344 200.765625 234.316406 200.730469 234.234375 C 200.570312 233.878906 200.386719 233.535156 200.246094 233.171875 C 199.699219 231.761719 199.375 230.285156 198.941406 228.839844 C 198.746094 228.191406 198.65625 227.511719 198.464844 226.859375 C 198.171875 225.871094 197.910156 224.871094 197.644531 223.875 C 197.519531 223.402344 197.433594 222.921875 197.359375 222.402344 Z M 190.101562 272.183594 C 189.980469 272.320312 190.007812 272.464844 190.070312 272.632812 C 190.265625 273.160156 190.570312 273.585938 191.09375 273.824219 C 191.148438 273.851562 191.199219 273.890625 191.25 273.925781 C 191.816406 274.328125 192.410156 274.664062 193.074219 274.886719 C 193.363281 274.984375 193.664062 274.988281 193.941406 275.109375 C 194.507812 275.363281 195.074219 275.28125 195.625 275.066406 C 195.828125 274.988281 196.027344 274.917969 196.238281 274.902344 C 196.515625 274.882812 196.738281 274.742188 196.964844 274.613281 C 197.15625 274.503906 197.160156 274.222656 196.980469 274.089844 C 196.910156 274.039062 196.832031 273.992188 196.75 273.964844 C 196.351562 273.847656 195.953125 273.746094 195.535156 273.714844 C 195.109375 273.683594 194.683594 273.648438 194.269531 273.519531 C 193.742188 273.355469 193.21875 273.164062 192.675781 273.066406 C 192.105469 272.964844 191.652344 272.683594 191.242188 272.308594 C 190.925781 272.015625 190.574219 271.851562 190.136719 271.855469 C 190.140625 271.980469 190.191406 272.085938 190.101562 272.183594 Z M 187.609375 269.695312 C 187.539062 269.984375 187.652344 270.210938 187.8125 270.429688 C 187.949219 270.609375 188.105469 270.777344 188.21875 270.96875 C 188.34375 271.1875 188.484375 271.066406 188.632812 271.035156 C 188.804688 270.996094 188.902344 270.917969 188.886719 270.730469 C 188.859375 270.457031 188.765625 270.222656 188.59375 270.003906 C 188.347656 269.691406 188.039062 269.480469 187.613281 269.332031 C 187.613281 269.472656 187.632812 269.589844 187.609375 269.695312 Z M 187.609375 269.695312 " fill-opacity="1" fill-rule="nonzero"/></g><g fill="#3e3e3e" fill-opacity="1"><g transform="translate(214.720742, 281.812232)"><g><path d="M 2.980469 -1.039062 C 5.085938 -1.039062 6.707031 -1.507812 7.84375 -2.445312 C 8.953125 -3.355469 9.507812 -4.828125 9.507812 -6.851562 L 9.507812 -44.515625 C 9.507812 -45.816406 9.292969 -46.835938 8.863281 -47.570312 C 8.425781 -48.316406 7.898438 -48.882812 7.269531 -49.277344 C 6.625 -49.683594 5.972656 -49.957031 5.3125 -50.105469 C 4.636719 -50.257812 4.09375 -50.332031 3.695312 -50.332031 L 2.476562 -50.332031 L 2.476562 -51.875 L 28.785156 -51.875 C 31.242188 -51.875 33.601562 -51.632812 35.863281 -51.148438 C 38.140625 -50.660156 40.1875 -49.875 42.003906 -48.792969 C 43.84375 -47.699219 45.300781 -46.269531 46.375 -44.511719 C 47.457031 -42.742188 48 -40.617188 48 -38.140625 C 48 -35.410156 47.324219 -33.097656 45.96875 -31.203125 C 44.628906 -29.328125 42.890625 -27.847656 40.753906 -26.757812 C 38.640625 -25.679688 36.347656 -24.9375 33.871094 -24.535156 L 33.789062 -25.03125 L 33.820312 -25.53125 C 36.703125 -25.371094 39.027344 -24.886719 40.792969 -24.085938 C 42.589844 -23.273438 44.074219 -21.957031 45.238281 -20.148438 C 46.375 -18.378906 47.425781 -15.945312 48.394531 -12.84375 C 49.414062 -9.699219 50.414062 -7.257812 51.390625 -5.519531 C 52.339844 -3.835938 53.398438 -2.667969 54.566406 -2.019531 C 55.742188 -1.367188 57.179688 -1.039062 58.878906 -1.039062 L 59.382812 -1.039062 L 59.382812 0.503906 L 48.152344 0.503906 C 45.800781 0.503906 43.53125 -0.472656 41.351562 -2.425781 C 39.207031 -4.347656 37.1875 -7.707031 35.289062 -12.507812 C 34.40625 -14.832031 33.757812 -16.765625 33.335938 -18.3125 C 32.921875 -19.828125 32.558594 -21.03125 32.242188 -21.910156 C 31.960938 -22.710938 31.609375 -23.269531 31.191406 -23.585938 C 30.785156 -23.894531 30.101562 -24.050781 29.140625 -24.050781 L 22.347656 -24.050781 L 22.347656 -24.554688 L 22.851562 -24.554688 L 22.851562 -6.734375 C 22.851562 -4.765625 23.308594 -3.328125 24.222656 -2.410156 C 25.136719 -1.496094 26.640625 -1.039062 28.726562 -1.039062 L 29.226562 -1.039062 L 29.226562 0.503906 L 2.476562 0.503906 L 2.476562 -1.039062 Z M 2.980469 -0.0351562 L 2.980469 -0.535156 L 3.484375 -0.535156 L 3.484375 0 L 2.980469 0 L 2.980469 -0.503906 L 28.726562 -0.503906 L 28.726562 0 L 28.222656 0 L 28.222656 -0.535156 L 28.726562 -0.535156 L 28.726562 -0.0351562 C 26.359375 -0.0351562 24.625 -0.589844 23.511719 -1.699219 C 22.402344 -2.8125 21.84375 -4.488281 21.84375 -6.734375 L 21.84375 -25.054688 L 29.140625 -25.054688 C 30.328125 -25.054688 31.214844 -24.832031 31.800781 -24.386719 C 32.375 -23.949219 32.839844 -23.238281 33.191406 -22.25 C 33.511719 -21.34375 33.886719 -20.117188 34.304688 -18.578125 C 34.71875 -17.0625 35.359375 -15.164062 36.226562 -12.878906 C 38.0625 -8.222656 39.996094 -4.988281 42.023438 -3.175781 C 44.011719 -1.394531 46.054688 -0.503906 48.152344 -0.503906 L 58.878906 -0.503906 L 58.878906 0 L 58.378906 0 L 58.378906 -0.535156 L 58.878906 -0.535156 L 58.878906 -0.0351562 C 57.003906 -0.0351562 55.402344 -0.402344 54.078125 -1.140625 C 52.742188 -1.882812 51.554688 -3.175781 50.515625 -5.027344 C 49.503906 -6.824219 48.480469 -9.332031 47.433594 -12.542969 C 46.496094 -15.558594 45.480469 -17.914062 44.390625 -19.601562 C 43.332031 -21.246094 41.996094 -22.4375 40.375 -23.171875 C 38.726562 -23.921875 36.519531 -24.371094 33.761719 -24.527344 L 33.710938 -25.527344 C 36.082031 -25.914062 38.277344 -26.625 40.296875 -27.652344 C 42.289062 -28.667969 43.90625 -30.046875 45.152344 -31.789062 C 46.378906 -33.507812 46.996094 -35.625 46.996094 -38.140625 C 46.996094 -40.429688 46.503906 -42.378906 45.519531 -43.988281 C 44.527344 -45.605469 43.1875 -46.917969 41.488281 -47.929688 C 39.769531 -48.953125 37.824219 -49.699219 35.652344 -50.164062 C 33.460938 -50.632812 31.171875 -50.867188 28.785156 -50.867188 L 2.980469 -50.867188 L 2.980469 -51.371094 L 3.484375 -51.371094 L 3.484375 -50.835938 L 2.980469 -50.835938 L 2.980469 -51.335938 L 3.695312 -51.335938 C 4.167969 -51.335938 4.78125 -51.253906 5.53125 -51.085938 C 6.304688 -50.914062 7.0625 -50.597656 7.804688 -50.128906 C 8.570312 -49.648438 9.210938 -48.964844 9.730469 -48.078125 C 10.253906 -47.1875 10.515625 -46 10.515625 -44.515625 L 10.515625 -6.851562 C 10.515625 -4.511719 9.839844 -2.78125 8.484375 -1.667969 C 7.160156 -0.578125 5.324219 -0.0351562 2.980469 -0.0351562 Z M 28.785156 -25.652344 C 30.058594 -25.652344 31.132812 -26.167969 32.003906 -27.203125 C 32.929688 -28.292969 33.628906 -29.789062 34.105469 -31.679688 C 34.59375 -33.605469 34.835938 -35.757812 34.835938 -38.140625 C 34.835938 -40.519531 34.59375 -42.644531 34.109375 -44.511719 C 33.632812 -46.339844 32.933594 -47.78125 32.011719 -48.835938 C 31.136719 -49.832031 30.0625 -50.332031 28.785156 -50.332031 L 22.347656 -50.332031 L 22.347656 -50.835938 L 22.851562 -50.835938 L 22.851562 -25.148438 L 22.347656 -25.148438 L 22.347656 -25.652344 Z M 28.785156 -24.644531 L 21.84375 -24.644531 L 21.84375 -51.335938 L 28.785156 -51.335938 C 30.367188 -51.335938 31.695312 -50.722656 32.769531 -49.496094 C 33.792969 -48.324219 34.566406 -46.746094 35.082031 -44.761719 C 35.589844 -42.816406 35.84375 -40.605469 35.84375 -38.140625 C 35.84375 -35.675781 35.589844 -33.441406 35.082031 -31.433594 C 34.566406 -29.390625 33.796875 -27.765625 32.773438 -26.554688 C 31.699219 -25.28125 30.371094 -24.644531 28.785156 -24.644531 Z M 28.785156 -24.644531 "/></g></g></g><g fill="#3e3e3e" fill-opacity="1"><g transform="translate(276.575082, 281.812232)"><g><path d="M 17.222656 -1.039062 C 19.238281 -1.039062 20.835938 -1.570312 22.011719 -2.636719 C 23.171875 -3.691406 23.753906 -5.113281 23.753906 -6.914062 L 23.753906 -23.421875 L 24.253906 -23.421875 L 23.820312 -23.171875 L 11.78125 -44.207031 C 9.492188 -48.136719 6.550781 -50.160156 2.964844 -50.273438 L 2.476562 -50.289062 L 2.476562 -51.8125 L 27.679688 -51.8125 L 27.679688 -50.28125 L 27.183594 -50.273438 C 25.234375 -50.238281 24.097656 -49.753906 23.777344 -48.824219 C 23.429688 -47.816406 23.753906 -46.445312 24.75 -44.707031 L 36.730469 -23.96875 L 36.292969 -23.71875 L 35.851562 -23.960938 L 47.234375 -44.699219 C 48.175781 -46.402344 48.355469 -47.746094 47.777344 -48.734375 C 47.199219 -49.722656 45.871094 -50.234375 43.792969 -50.273438 L 43.300781 -50.28125 L 43.300781 -51.8125 L 58.429688 -51.8125 L 58.429688 -50.289062 L 57.945312 -50.273438 C 55.785156 -50.195312 53.953125 -49.59375 52.449219 -48.464844 C 50.914062 -47.316406 49.671875 -45.878906 48.710938 -44.152344 L 37.03125 -22.820312 L 36.589844 -23.0625 L 37.09375 -23.0625 L 37.09375 -6.914062 C 37.09375 -5.113281 37.664062 -3.6875 38.808594 -2.632812 C 39.964844 -1.570312 41.570312 -1.039062 43.625 -1.039062 L 44.125 -1.039062 L 44.125 0.503906 L 16.71875 0.503906 L 16.71875 -1.039062 Z M 17.222656 -0.0351562 L 17.222656 -0.535156 L 17.726562 -0.535156 L 17.726562 0 L 17.222656 0 L 17.222656 -0.503906 L 43.625 -0.503906 L 43.625 0 L 43.121094 0 L 43.121094 -0.535156 L 43.625 -0.535156 L 43.625 -0.0351562 C 41.308594 -0.0351562 39.476562 -0.652344 38.128906 -1.894531 C 36.769531 -3.144531 36.089844 -4.820312 36.089844 -6.914062 L 36.089844 -23.191406 L 47.832031 -44.640625 C 48.859375 -46.492188 50.199219 -48.035156 51.84375 -49.269531 C 53.515625 -50.523438 55.539062 -51.195312 57.910156 -51.277344 L 57.925781 -50.773438 L 57.421875 -50.773438 L 57.421875 -51.3125 L 57.925781 -51.3125 L 57.925781 -50.808594 L 43.800781 -50.808594 L 43.800781 -51.3125 L 44.304688 -51.3125 L 44.304688 -50.773438 L 43.800781 -50.773438 L 43.8125 -51.277344 C 46.265625 -51.234375 47.875 -50.554688 48.644531 -49.242188 C 49.417969 -47.925781 49.242188 -46.25 48.117188 -44.214844 L 36.304688 -22.695312 L 23.878906 -44.207031 C 22.730469 -46.207031 22.378906 -47.855469 22.828125 -49.152344 C 23.300781 -50.523438 24.746094 -51.234375 27.167969 -51.277344 L 27.175781 -50.773438 L 26.671875 -50.773438 L 26.671875 -51.3125 L 27.175781 -51.3125 L 27.175781 -50.808594 L 2.980469 -50.808594 L 2.980469 -51.3125 L 3.484375 -51.3125 L 3.484375 -50.773438 L 2.980469 -50.773438 L 2.996094 -51.277344 C 6.957031 -51.152344 10.175781 -48.960938 12.652344 -44.707031 L 24.757812 -23.554688 L 24.757812 -6.914062 C 24.757812 -4.816406 24.066406 -3.144531 22.6875 -1.890625 C 21.320312 -0.652344 19.496094 -0.0351562 17.222656 -0.0351562 Z M 17.222656 -0.0351562 "/></g></g></g></svg>